A review and highlights of the following games played, English Commentary and Narration.

Sunday January 20

Tottenham Hotspur v Manchester United
Chelsea v Arsenal

Saturday January 19

West Bromwich Albion v Aston Villa
Newcastle United v Reading
Swansea City v Stoke City
Wigan Athletic v Sunderland
West Ham United v Queens Park Rangers
Manchester City v Fulham
Liverpool v Norwich City




Video

Format/Info                      : MP4
Format profile                   : High@L3.0
Format settings, CABAC           : Yes
Format settings, ReFrames        : 4 frames
Codec ID                         : avc1
Codec ID/Info                    : Advanced Video Coding
Duration                         : 51mn 25s
Bit rate mode                    : Variable
Bit rate                         : 632 Kbps
Maximum bit rate                 : 2 329 Kbps
Width                            : 640 pixels
Height                           : 364 pixels
Display aspect ratio             : 16:9
Frame rate mode                  : Constant
Frame rate                       : 25.000 fps
Resolution                       : 8 bits
Colorimetry                      : 4:2:0
Scan type                        : Progressive
Bits/(Pixel*Frame)               : 0.108
Stream size                      : 232 MiB (90%)


Audio

Format                           : AAC
Format/Info                      : Advanced Audio Codec
Format version                   : Version 4
Format profile                   : LC
Format settings, SBR             : No
Format settings, PS              : Yes
Codec ID                         : 40
Duration                         : 51mn 26s
Bit rate mode                    : Variable
Bit rate                         : 64.0 Kbps
Maximum bit rate                 : 79.6 Kbps
Channel(s)                       : 2 channels
Channel positions                : Front: L R
Sampling rate                    : 48.0 KHz
Stream size                      : 23.5 MiB (9%)

Screens (Please check before Download) :
 
http://i.imgur.com/zbtgD7A.jpg
 
http://i.imgur.com/V370nCE.jpg
 
http://i.imgur.com/9AACpWK.jpg